<mxfile host="app.diagrams.net" modified="2024-05-09T15:30:52.332Z" agent="Mozilla/5.0 (Windows NT 10.0; Win64; x64) AppleWebKit/537.36 (KHTML, like Gecko) Chrome/124.0.0.0 Safari/537.36" etag="tXt0cLCjKSIp4Jml3E0J" version="24.3.1" type="device">
  <diagram name="第 1 页" id="Tmel-B2Fsujm1qxgdoA-">
    <mxGraphModel dx="1254" dy="756" grid="1" gridSize="10" guides="1" tooltips="1" connect="1" arrows="1" fold="1" page="1" pageScale="1" pageWidth="827" pageHeight="1169" math="1" shadow="0">
      <root>
        <mxCell id="0" />
        <mxCell id="1" parent="0" />
        <mxCell id="YgqETwFMrnKXnXK8K1oj-21" value="" style="shape=flexArrow;endArrow=classic;html=1;rounded=0;" edge="1" parent="1">
          <mxGeometry width="50" height="50" relative="1" as="geometry">
            <mxPoint x="360" y="154.66" as="sourcePoint" />
            <mxPoint x="420" y="154.66" as="targetPoint" />
          </mxGeometry>
        </mxCell>
        <mxCell id="YgqETwFMrnKXnXK8K1oj-40" value="" style="group" vertex="1" connectable="0" parent="1">
          <mxGeometry x="460" y="50" width="250" height="210" as="geometry" />
        </mxCell>
        <mxCell id="YgqETwFMrnKXnXK8K1oj-32" style="edgeStyle=orthogonalEdgeStyle;rounded=0;orthogonalLoop=1;jettySize=auto;html=1;entryX=0;entryY=0.5;entryDx=0;entryDy=0;" edge="1" parent="YgqETwFMrnKXnXK8K1oj-40" source="YgqETwFMrnKXnXK8K1oj-24" target="YgqETwFMrnKXnXK8K1oj-26">
          <mxGeometry relative="1" as="geometry" />
        </mxCell>
        <mxCell id="YgqETwFMrnKXnXK8K1oj-33" value="20" style="edgeLabel;html=1;align=center;verticalAlign=middle;resizable=0;points=[];" vertex="1" connectable="0" parent="YgqETwFMrnKXnXK8K1oj-32">
          <mxGeometry x="0.069" relative="1" as="geometry">
            <mxPoint as="offset" />
          </mxGeometry>
        </mxCell>
        <mxCell id="YgqETwFMrnKXnXK8K1oj-24" value="\(A\)" style="ellipse;whiteSpace=wrap;html=1;aspect=fixed;" vertex="1" parent="YgqETwFMrnKXnXK8K1oj-40">
          <mxGeometry width="47.138047138047135" height="47.138047138047135" as="geometry" />
        </mxCell>
        <mxCell id="YgqETwFMrnKXnXK8K1oj-25" value="\(B\)" style="ellipse;whiteSpace=wrap;html=1;aspect=fixed;" vertex="1" parent="YgqETwFMrnKXnXK8K1oj-40">
          <mxGeometry y="159.0909090909091" width="47.138047138047135" height="47.138047138047135" as="geometry" />
        </mxCell>
        <mxCell id="YgqETwFMrnKXnXK8K1oj-26" value="\(C\)" style="ellipse;whiteSpace=wrap;html=1;aspect=fixed;" vertex="1" parent="YgqETwFMrnKXnXK8K1oj-40">
          <mxGeometry x="187.50000000000003" width="47.138047138047135" height="47.138047138047135" as="geometry" />
        </mxCell>
        <mxCell id="YgqETwFMrnKXnXK8K1oj-30" style="edgeStyle=orthogonalEdgeStyle;rounded=0;orthogonalLoop=1;jettySize=auto;html=1;exitX=0.5;exitY=0;exitDx=0;exitDy=0;entryX=0.5;entryY=1;entryDx=0;entryDy=0;" edge="1" parent="YgqETwFMrnKXnXK8K1oj-40" source="YgqETwFMrnKXnXK8K1oj-27" target="YgqETwFMrnKXnXK8K1oj-26">
          <mxGeometry relative="1" as="geometry" />
        </mxCell>
        <mxCell id="YgqETwFMrnKXnXK8K1oj-31" value="50" style="edgeLabel;html=1;align=center;verticalAlign=middle;resizable=0;points=[];" vertex="1" connectable="0" parent="YgqETwFMrnKXnXK8K1oj-30">
          <mxGeometry x="0.2583" y="-2" relative="1" as="geometry">
            <mxPoint as="offset" />
          </mxGeometry>
        </mxCell>
        <mxCell id="YgqETwFMrnKXnXK8K1oj-27" value="\(D\)" style="ellipse;whiteSpace=wrap;html=1;aspect=fixed;" vertex="1" parent="YgqETwFMrnKXnXK8K1oj-40">
          <mxGeometry x="187.50000000000003" y="159.0909090909091" width="47.138047138047135" height="47.138047138047135" as="geometry" />
        </mxCell>
        <mxCell id="YgqETwFMrnKXnXK8K1oj-28" value="" style="endArrow=classic;html=1;rounded=0;exitX=1;exitY=0.5;exitDx=0;exitDy=0;entryX=0;entryY=0.5;entryDx=0;entryDy=0;" edge="1" parent="YgqETwFMrnKXnXK8K1oj-40" source="YgqETwFMrnKXnXK8K1oj-25" target="YgqETwFMrnKXnXK8K1oj-27">
          <mxGeometry width="50" height="50" relative="1" as="geometry">
            <mxPoint x="-78.125" y="165.45454545454544" as="sourcePoint" />
            <mxPoint y="101.81818181818181" as="targetPoint" />
          </mxGeometry>
        </mxCell>
        <mxCell id="YgqETwFMrnKXnXK8K1oj-29" value="60" style="edgeLabel;html=1;align=center;verticalAlign=middle;resizable=0;points=[];" vertex="1" connectable="0" parent="YgqETwFMrnKXnXK8K1oj-28">
          <mxGeometry x="0.2405" y="1" relative="1" as="geometry">
            <mxPoint as="offset" />
          </mxGeometry>
        </mxCell>
        <mxCell id="YgqETwFMrnKXnXK8K1oj-35" value="" style="endArrow=classic;html=1;rounded=0;exitX=1;exitY=1;exitDx=0;exitDy=0;" edge="1" parent="YgqETwFMrnKXnXK8K1oj-40" source="YgqETwFMrnKXnXK8K1oj-24" target="YgqETwFMrnKXnXK8K1oj-27">
          <mxGeometry width="50" height="50" relative="1" as="geometry">
            <mxPoint x="62.5" y="76.36363636363636" as="sourcePoint" />
            <mxPoint x="140.625" y="12.727272727272727" as="targetPoint" />
          </mxGeometry>
        </mxCell>
        <mxCell id="YgqETwFMrnKXnXK8K1oj-39" value="20" style="edgeLabel;html=1;align=center;verticalAlign=middle;resizable=0;points=[];" vertex="1" connectable="0" parent="YgqETwFMrnKXnXK8K1oj-35">
          <mxGeometry x="-0.4395" y="2" relative="1" as="geometry">
            <mxPoint as="offset" />
          </mxGeometry>
        </mxCell>
        <mxCell id="YgqETwFMrnKXnXK8K1oj-37" value="" style="endArrow=classic;html=1;rounded=0;entryX=0;entryY=1;entryDx=0;entryDy=0;exitX=1;exitY=0;exitDx=0;exitDy=0;" edge="1" parent="YgqETwFMrnKXnXK8K1oj-40" source="YgqETwFMrnKXnXK8K1oj-25" target="YgqETwFMrnKXnXK8K1oj-26">
          <mxGeometry width="50" height="50" relative="1" as="geometry">
            <mxPoint x="125" y="98.63636363636364" as="sourcePoint" />
            <mxPoint x="203.12500000000003" y="35" as="targetPoint" />
          </mxGeometry>
        </mxCell>
        <mxCell id="YgqETwFMrnKXnXK8K1oj-38" value="60" style="edgeLabel;html=1;align=center;verticalAlign=middle;resizable=0;points=[];" vertex="1" connectable="0" parent="YgqETwFMrnKXnXK8K1oj-37">
          <mxGeometry x="-0.2729" y="-1" relative="1" as="geometry">
            <mxPoint as="offset" />
          </mxGeometry>
        </mxCell>
        <mxCell id="YgqETwFMrnKXnXK8K1oj-41" value="" style="group" vertex="1" connectable="0" parent="1">
          <mxGeometry x="60" y="50" width="280" height="210" as="geometry" />
        </mxCell>
        <mxCell id="YgqETwFMrnKXnXK8K1oj-1" style="edgeStyle=orthogonalEdgeStyle;rounded=0;orthogonalLoop=1;jettySize=auto;html=1;exitX=0;exitY=0.5;exitDx=0;exitDy=0;strokeColor=default;endArrow=none;endFill=0;" edge="1" parent="YgqETwFMrnKXnXK8K1oj-41" source="YgqETwFMrnKXnXK8K1oj-2">
          <mxGeometry relative="1" as="geometry">
            <mxPoint x="43.75000000000001" y="21.428571428571427" as="targetPoint" />
          </mxGeometry>
        </mxCell>
        <mxCell id="YgqETwFMrnKXnXK8K1oj-2" value="\(20\Omega\)" style="rounded=0;whiteSpace=wrap;html=1;" vertex="1" parent="YgqETwFMrnKXnXK8K1oj-41">
          <mxGeometry x="113.75000000000001" y="12.857142857142858" width="70" height="17.142857142857142" as="geometry" />
        </mxCell>
        <mxCell id="YgqETwFMrnKXnXK8K1oj-3" value="\(60\Omega\)" style="rounded=0;whiteSpace=wrap;html=1;" vertex="1" parent="YgqETwFMrnKXnXK8K1oj-41">
          <mxGeometry x="113.75000000000001" y="184.28571428571428" width="70" height="17.142857142857142" as="geometry" />
        </mxCell>
        <mxCell id="YgqETwFMrnKXnXK8K1oj-4" value="\(50\Omega\)" style="rounded=0;whiteSpace=wrap;html=1;rotation=90;" vertex="1" parent="YgqETwFMrnKXnXK8K1oj-41">
          <mxGeometry x="216.56250000000003" y="92.14285714285714" width="56.87500000000001" height="17.142857142857142" as="geometry" />
        </mxCell>
        <mxCell id="YgqETwFMrnKXnXK8K1oj-5" value="\(60\Omega\)" style="rounded=0;whiteSpace=wrap;html=1;rotation=-45;" vertex="1" parent="YgqETwFMrnKXnXK8K1oj-41">
          <mxGeometry x="87.50000000000001" y="141.42857142857144" width="70" height="17.142857142857142" as="geometry" />
        </mxCell>
        <mxCell id="YgqETwFMrnKXnXK8K1oj-6" value="\(20\Omega\)" style="rounded=0;whiteSpace=wrap;html=1;rotation=45;" vertex="1" parent="YgqETwFMrnKXnXK8K1oj-41">
          <mxGeometry x="87.50000000000001" y="55.714285714285715" width="70" height="17.142857142857142" as="geometry" />
        </mxCell>
        <mxCell id="YgqETwFMrnKXnXK8K1oj-7" value="" style="endArrow=none;html=1;rounded=0;entryX=0;entryY=0.5;entryDx=0;entryDy=0;" edge="1" parent="YgqETwFMrnKXnXK8K1oj-41" target="YgqETwFMrnKXnXK8K1oj-6">
          <mxGeometry width="50" height="50" relative="1" as="geometry">
            <mxPoint x="78.75000000000001" y="21.428571428571427" as="sourcePoint" />
            <mxPoint x="192.50000000000003" y="81.42857142857143" as="targetPoint" />
          </mxGeometry>
        </mxCell>
        <mxCell id="YgqETwFMrnKXnXK8K1oj-8" value="" style="endArrow=none;html=1;rounded=0;entryX=0;entryY=0.5;entryDx=0;entryDy=0;" edge="1" parent="YgqETwFMrnKXnXK8K1oj-41" target="YgqETwFMrnKXnXK8K1oj-5">
          <mxGeometry width="50" height="50" relative="1" as="geometry">
            <mxPoint x="78.75000000000001" y="192.85714285714286" as="sourcePoint" />
            <mxPoint x="98.00000000000001" y="201.42857142857142" as="targetPoint" />
          </mxGeometry>
        </mxCell>
        <mxCell id="YgqETwFMrnKXnXK8K1oj-9" style="edgeStyle=orthogonalEdgeStyle;rounded=0;orthogonalLoop=1;jettySize=auto;html=1;exitX=0;exitY=0.5;exitDx=0;exitDy=0;strokeColor=default;endArrow=none;endFill=0;" edge="1" parent="YgqETwFMrnKXnXK8K1oj-41">
          <mxGeometry relative="1" as="geometry">
            <mxPoint x="43.75000000000001" y="192.68571428571428" as="targetPoint" />
            <mxPoint x="113.75000000000001" y="192.68571428571428" as="sourcePoint" />
          </mxGeometry>
        </mxCell>
        <mxCell id="YgqETwFMrnKXnXK8K1oj-10" value="" style="endArrow=none;html=1;rounded=0;exitX=1;exitY=0.5;exitDx=0;exitDy=0;" edge="1" parent="YgqETwFMrnKXnXK8K1oj-41" source="YgqETwFMrnKXnXK8K1oj-6">
          <mxGeometry width="50" height="50" relative="1" as="geometry">
            <mxPoint x="148.75" y="90.00000000000001" as="sourcePoint" />
            <mxPoint x="157.50000000000003" y="98.57142857142858" as="targetPoint" />
          </mxGeometry>
        </mxCell>
        <mxCell id="YgqETwFMrnKXnXK8K1oj-11" value="" style="endArrow=none;html=1;rounded=0;" edge="1" parent="YgqETwFMrnKXnXK8K1oj-41" source="YgqETwFMrnKXnXK8K1oj-5">
          <mxGeometry width="50" height="50" relative="1" as="geometry">
            <mxPoint x="148.75" y="124.28571428571429" as="sourcePoint" />
            <mxPoint x="245.00000000000003" y="21.428571428571427" as="targetPoint" />
          </mxGeometry>
        </mxCell>
        <mxCell id="YgqETwFMrnKXnXK8K1oj-12" value="" style="endArrow=none;html=1;rounded=0;" edge="1" parent="YgqETwFMrnKXnXK8K1oj-41">
          <mxGeometry width="50" height="50" relative="1" as="geometry">
            <mxPoint x="183.75000000000003" y="21.428571428571427" as="sourcePoint" />
            <mxPoint x="245.00000000000003" y="21.428571428571427" as="targetPoint" />
          </mxGeometry>
        </mxCell>
        <mxCell id="YgqETwFMrnKXnXK8K1oj-13" value="" style="endArrow=none;html=1;rounded=0;" edge="1" parent="YgqETwFMrnKXnXK8K1oj-41">
          <mxGeometry width="50" height="50" relative="1" as="geometry">
            <mxPoint x="245.00000000000003" y="21.257142857142853" as="sourcePoint" />
            <mxPoint x="245.00000000000003" y="72.85714285714286" as="targetPoint" />
          </mxGeometry>
        </mxCell>
        <mxCell id="YgqETwFMrnKXnXK8K1oj-14" value="" style="endArrow=none;html=1;rounded=0;entryX=0.5;entryY=0;entryDx=0;entryDy=0;exitX=1;exitY=0.5;exitDx=0;exitDy=0;" edge="1" parent="YgqETwFMrnKXnXK8K1oj-41" source="YgqETwFMrnKXnXK8K1oj-4">
          <mxGeometry width="50" height="50" relative="1" as="geometry">
            <mxPoint x="244.91250000000005" y="132.85714285714286" as="sourcePoint" />
            <mxPoint x="244.91250000000005" y="193.02857142857144" as="targetPoint" />
          </mxGeometry>
        </mxCell>
        <mxCell id="YgqETwFMrnKXnXK8K1oj-15" value="" style="endArrow=none;html=1;rounded=0;exitX=1;exitY=0.5;exitDx=0;exitDy=0;" edge="1" parent="YgqETwFMrnKXnXK8K1oj-41" source="YgqETwFMrnKXnXK8K1oj-3">
          <mxGeometry width="50" height="50" relative="1" as="geometry">
            <mxPoint x="201.25000000000003" y="175.71428571428572" as="sourcePoint" />
            <mxPoint x="245.00000000000003" y="192.85714285714286" as="targetPoint" />
          </mxGeometry>
        </mxCell>
        <mxCell id="YgqETwFMrnKXnXK8K1oj-16" value="" style="endArrow=none;html=1;rounded=0;" edge="1" parent="YgqETwFMrnKXnXK8K1oj-41">
          <mxGeometry width="50" height="50" relative="1" as="geometry">
            <mxPoint x="175.00000000000003" y="115.71428571428572" as="sourcePoint" />
            <mxPoint x="245.00000000000003" y="192.85714285714286" as="targetPoint" />
          </mxGeometry>
        </mxCell>
        <mxCell id="YgqETwFMrnKXnXK8K1oj-17" value="" style="curved=1;endArrow=none;html=1;rounded=0;endFill=0;" edge="1" parent="YgqETwFMrnKXnXK8K1oj-41">
          <mxGeometry width="50" height="50" relative="1" as="geometry">
            <mxPoint x="175.00000000000003" y="115.71428571428572" as="sourcePoint" />
            <mxPoint x="157.50000000000003" y="98.57142857142858" as="targetPoint" />
            <Array as="points">
              <mxPoint x="175.00000000000003" y="98.57142857142858" />
            </Array>
          </mxGeometry>
        </mxCell>
        <mxCell id="YgqETwFMrnKXnXK8K1oj-18" value="\(A\)" style="text;html=1;align=center;verticalAlign=middle;whiteSpace=wrap;rounded=0;" vertex="1" parent="YgqETwFMrnKXnXK8K1oj-41">
          <mxGeometry y="8.571428571428571" width="52.50000000000001" height="25.714285714285715" as="geometry" />
        </mxCell>
        <mxCell id="YgqETwFMrnKXnXK8K1oj-19" value="\(B\)" style="text;html=1;align=center;verticalAlign=middle;whiteSpace=wrap;rounded=0;" vertex="1" parent="YgqETwFMrnKXnXK8K1oj-41">
          <mxGeometry y="180.00000000000003" width="52.50000000000001" height="25.714285714285715" as="geometry" />
        </mxCell>
        <mxCell id="YgqETwFMrnKXnXK8K1oj-22" value="\(C\)" style="text;html=1;align=center;verticalAlign=middle;whiteSpace=wrap;rounded=0;" vertex="1" parent="YgqETwFMrnKXnXK8K1oj-41">
          <mxGeometry x="227.50000000000003" width="52.50000000000001" height="25.714285714285715" as="geometry" />
        </mxCell>
        <mxCell id="YgqETwFMrnKXnXK8K1oj-23" value="\(D\)" style="text;html=1;align=center;verticalAlign=middle;whiteSpace=wrap;rounded=0;" vertex="1" parent="YgqETwFMrnKXnXK8K1oj-41">
          <mxGeometry x="227.50000000000003" y="184.28571428571428" width="52.50000000000001" height="25.714285714285715" as="geometry" />
        </mxCell>
      </root>
    </mxGraphModel>
  </diagram>
</mxfile>
